<?xml version="1.0" encoding="utf-8"?>
<!-- Generator: Adobe Illustrator 22.0.0, SVG Export Plug-In . SVG Version: 6.00 Build 0)  -->
<svg version="1.1" id="Capa_1" xmlns="http://www.w3.org/2000/svg" xmlns:xlink="http://www.w3.org/1999/xlink" x="0px" y="0px"
	 viewBox="0 0 24 24" style="enable-background:new 0 0 24 24;" xml:space="preserve">
<style type="text/css">
	.st0{fill:none;}
	.st1{fill:#D1D1D1;}
</style>
<path class="st0" d="M0,0h24v24H0V0z"/>
<path class="st1" d="M18,19H6c-0.6,0-1-0.5-1-1V6c0-0.6,0.4-1,1-1h12c0.5,0,1,0.4,1,1v12C19,18.5,18.5,19,18,19z M19,3H5
	C3.9,3,3,3.9,3,5v14c0,1.1,0.9,2,2,2h14c1.1,0,2-0.9,2-2V5C21,3.9,20.1,3,19,3z"/>
</svg>
